<?xml version="1.0" encoding="utf-8"?>
<!-- Generator: Adobe Illustrator 18.1.1, SVG Export Plug-In . SVG Version: 6.00 Build 0)  -->
<svg version="1.1" id="Слой_1" xmlns="http://www.w3.org/2000/svg" xmlns:xlink="http://www.w3.org/1999/xlink" x="0px" y="0px"
	 viewBox="0 0 31.82 29.9" enable-background="new 0 0 31.82 29.9" xml:space="preserve">
<g>
	<path fill-rule="evenodd" clip-rule="evenodd" fill="#C1C2C7" d="M3.43,0h24.97c0.79,0,1.43,0.64,1.43,1.43v18.34
		c0,0.79-0.64,1.43-1.43,1.43H3.43C2.64,21.19,2,20.55,2,19.76V1.43C2,0.64,2.64,0,3.43,0L3.43,0z"/>
	<path fill-rule="evenodd" clip-rule="evenodd" fill="#E7E8EC" d="M4.99,17.98h21.84c0.56,0,1.01-0.48,1.01-1.08V3.17
		c0-0.6-0.45-1.08-1.01-1.08H4.99c-0.56,0-1.01,0.48-1.01,1.08v13.73C3.98,17.5,4.43,17.98,4.99,17.98z"/>
	<polygon fill-rule="evenodd" clip-rule="evenodd" fill="#A6A7AB" points="31.82,26.94 0,26.94 0,24.97 2,19.75 29.82,19.75 
		31.82,24.97 	"/>
	<path fill-rule="evenodd" clip-rule="evenodd" fill="#8B4A7B" d="M10.31,7.03h11.2c0.79,0,1.38,0.58,1.38,1.36v20.14
		c0,0.73-0.59,1.36-1.38,1.36h-11.2c-0.74,0-1.38-0.63-1.38-1.36V8.39C8.93,7.62,9.57,7.03,10.31,7.03L10.31,7.03z"/>
	<path fill-rule="evenodd" clip-rule="evenodd" fill="#FFFFFF" d="M10.96,24h9.91V10.12c0-0.62-0.5-1.12-1.12-1.12h-7.67
		c-0.62,0-1.12,0.5-1.12,1.12V24z"/>
	<path fill-rule="evenodd" clip-rule="evenodd" fill="#FFFFFF" d="M15.91,28.19c0.63,0,1.12-0.49,1.12-1.12
		c0-0.58-0.49-1.12-1.12-1.12c-0.63,0-1.12,0.54-1.12,1.12C14.79,27.7,15.28,28.19,15.91,28.19L15.91,28.19z"/>
	<polyline fill="none" stroke="#8B4A7B" stroke-width="1.1906" stroke-linecap="round" stroke-miterlimit="10" points="13.52,20.25 
		15.9,17.87 18.3,20.25 	"/>
	<polyline fill="none" stroke="#8B4A7B" stroke-width="1.1906" stroke-linecap="round" stroke-miterlimit="10" points="13.52,15.25 
		15.9,12.87 18.3,15.25 	"/>
</g>
<g>
</g>
<g>
</g>
<g>
</g>
<g>
</g>
<g>
</g>
<g>
</g>
<g>
</g>
<g>
</g>
<g>
</g>
<g>
</g>
<g>
</g>
<g>
</g>
<g>
</g>
<g>
</g>
<g>
</g>
</svg>
